<svg xmlns="http://www.w3.org/2000/svg" xmlns:xlink="http://www.w3.org/1999/xlink" width="500" zoomAndPan="magnify" viewBox="0 0 375 374.999991" height="500" preserveAspectRatio="xMidYMid meet" version="1.0"><defs><clipPath id="5bcc027a1e"><path d="M 40.347656 7.648438 L 334.347656 7.648438 L 334.347656 367.648438 L 40.347656 367.648438 Z M 40.347656 7.648438 " clip-rule="nonzero"/></clipPath></defs><rect x="-37.5" width="450" fill="#ffffff" y="-37.499999" height="449.999989" fill-opacity="1"/><rect x="-37.5" width="450" fill="#ffffff" y="-37.499999" height="449.999989" fill-opacity="1"/><g clip-path="url(#5bcc027a1e)"><path fill="#5271ff" d="M 187.496094 7.648438 L 40.347656 73.046875 L 40.347656 171.144531 C 40.347656 261.96875 103.050781 346.660156 187.496094 367.339844 C 271.941406 346.660156 334.640625 261.96875 334.640625 171.144531 L 334.640625 73.046875 Z M 187.496094 187.332031 L 301.941406 187.332031 C 293.277344 254.691406 248.398438 314.695312 187.496094 333.414062 L 187.496094 187.496094 L 73.046875 187.496094 L 73.046875 94.304688 L 187.496094 43.457031 Z M 187.496094 187.332031 " fill-opacity="1" fill-rule="nonzero"/></g></svg>